<svg id="Group_361" data-name="Group 361" xmlns="http://www.w3.org/2000/svg" width="111.898" height="127.884" viewBox="0 0 111.898 127.884">
  <path id="Path_91" data-name="Path 91" d="M260.358,334.488v67.936a11.992,11.992,0,0,0,11.99,11.989h87.919a11.992,11.992,0,0,0,11.989-11.989V334.488Zm31.971,60.942a3.008,3.008,0,0,1-3,3h-9.991a3.007,3.007,0,0,1-3-3v-9.991a3.007,3.007,0,0,1,3-3h9.991a3.007,3.007,0,0,1,3,3Zm0-31.971a3.008,3.008,0,0,1-3,3h-9.991a3.007,3.007,0,0,1-3-3v-9.991a3.007,3.007,0,0,1,3-3h9.991a3.007,3.007,0,0,1,3,3ZM324.3,395.43a3.008,3.008,0,0,1-3,3h-9.991a3.007,3.007,0,0,1-3-3v-9.991a3.007,3.007,0,0,1,3-3H321.3a3.007,3.007,0,0,1,3,3Zm0-31.971a3.008,3.008,0,0,1-3,3h-9.991a3.007,3.007,0,0,1-3-3v-9.991a3.007,3.007,0,0,1,3-3H321.3a3.007,3.007,0,0,1,3,3Zm31.971,31.971a3.008,3.008,0,0,1-3,3h-9.991a3.007,3.007,0,0,1-3-3v-9.991a3.007,3.007,0,0,1,3-3h9.991a3.007,3.007,0,0,1,3,3Zm0-31.971a3.008,3.008,0,0,1-3,3h-9.991a3.007,3.007,0,0,1-3-3v-9.991a3.007,3.007,0,0,1,3-3h9.991a3.007,3.007,0,0,1,3,3Z" transform="translate(-260.358 -286.53)" fill="#d8d8d8"/>
  <path id="Path_92" data-name="Path 92" d="M360.267,230.873h-11.99V218.884a4.01,4.01,0,0,0-4-4h-7.992a4.009,4.009,0,0,0-4,4v11.99H300.321v-11.99a4.009,4.009,0,0,0-3.995-4h-7.994a4.009,4.009,0,0,0-4,4v11.99H272.348a11.992,11.992,0,0,0-11.99,11.989v11.989h111.9V242.862a11.992,11.992,0,0,0-11.989-11.989Z" transform="translate(-260.358 -214.888)" fill="#ef2525"/>
</svg>
