<svg xmlns="http://www.w3.org/2000/svg" width="26.135" height="18.701" viewBox="0 0 26.135 18.701">
  <g id="Group_174" data-name="Group 174" transform="translate(0)">
    <path id="Path_31" data-name="Path 31" d="M222.194,1202.9v5.521a2.087,2.087,0,0,1,1.761.99,1.992,1.992,0,0,1,.294,1.317,2.075,2.075,0,0,1-2.047,1.825v5.033c-.431-.155-.83-.3-1.227-.442q-4.028-1.472-8.057-2.939a.275.275,0,0,1-.216-.313q.008-3.649,0-7.3a.288.288,0,0,1,.234-.324q4.526-1.642,9.048-3.3C222.043,1202.953,222.1,1202.933,222.194,1202.9Z" transform="translate(-203.755 -1202.203)" fill="#b5b5b5"/>
    <path id="Path_32" data-name="Path 32" d="M108.962,1276.769v7.365c-.031.014-.052.033-.073.033-.982-.01-1.965-.008-2.946-.042a3.233,3.233,0,0,1-.805-.2.373.373,0,0,1-.272-.409q.011-3.048,0-6.1a.375.375,0,0,1,.292-.418,4.705,4.705,0,0,1,1.024-.227C107.1,1276.748,108.015,1276.769,108.962,1276.769Z" transform="translate(-101.228 -1272.426)" fill="#b5b5b5"/>
    <path id="Path_33" data-name="Path 33" d="M120.874,1451.252h2.518c.005.111.013.2.013.283q0,2.322,0,4.643c0,.589-.251.843-.831.845-.352,0-.7.007-1.056-.006a.645.645,0,0,1-.655-.655c-.006-1.671,0-3.341,0-5.012A.554.554,0,0,1,120.874,1451.252Z" transform="translate(-116.435 -1438.325)" fill="#b5b5b5"/>
    <path id="Path_34" data-name="Path 34" d="M33.435,1315.642v3.576c-.658,0-1.3.016-1.946-.007a.519.519,0,0,1-.479-.558q-.006-1.228,0-2.456a.525.525,0,0,1,.512-.551C32.152,1315.633,32.782,1315.642,33.435,1315.642Z" transform="translate(-31.008 -1309.389)" fill="#b5b5b5"/>
    <path id="Path_35" data-name="Path 35" d="M486.176,1330.406l1.274-.425c.542-.181,1.083-.364,1.625-.541.431-.141.713,0,.8.444a1.559,1.559,0,0,1-.043.691.467.467,0,0,1-.555.34c-1.018-.146-2.035-.3-3.052-.459C486.215,1330.455,486.206,1330.436,486.176,1330.406Z" transform="translate(-463.766 -1322.461)" fill="#b5b5b5"/>
    <path id="Path_36" data-name="Path 36" d="M427.654,1192.21c.208-1.007.413-2.014.626-3.019a.518.518,0,0,1,.666-.477.994.994,0,0,1,.725.454.457.457,0,0,1,.016.554c-.656.845-1.326,1.68-1.991,2.518Z" transform="translate(-408.125 -1188.704)" fill="#b5b5b5"/>
    <path id="Path_37" data-name="Path 37" d="M469.3,1248.07l1.724-1.945c.119-.135.234-.275.361-.4a.514.514,0,0,1,.711-.066,1.033,1.033,0,0,1,.444.681.5.5,0,0,1-.275.62c-.973.4-1.953.776-2.93,1.161Z" transform="translate(-447.724 -1242.746)" fill="#b5b5b5"/>
    <path id="Path_38" data-name="Path 38" d="M474.6,1404.448l2.061.419c.3.062.609.121.912.187.438.1.621.368.476.79a1.61,1.61,0,0,1-.384.579.438.438,0,0,1-.607.045c-.83-.649-1.653-1.308-2.479-1.963Z" transform="translate(-452.74 -1393.826)" fill="#b5b5b5"/>
    <path id="Path_39" data-name="Path 39" d="M436.494,1445.61l1.506,1.33c.27.238.541.475.807.718a.528.528,0,0,1,.031.868,1.819,1.819,0,0,1-.679.35.42.42,0,0,1-.511-.25c-.407-.993-.8-1.994-1.193-2.992Z" transform="translate(-416.493 -1432.961)" fill="#b5b5b5"/>
  </g>
</svg>
