<svg xmlns="http://www.w3.org/2000/svg" width="24.028" height="22.193" viewBox="0 0 24.028 22.193">
  <g id="Group_165" data-name="Group 165" transform="translate(0 0)">
    <path id="Path_9" data-name="Path 9" d="M12.336,29.512a1.387,1.387,0,1,1-1.387-1.387,1.387,1.387,0,0,1,1.387,1.387Z" transform="translate(-4.484 -8.705)" fill="#dd001a"/>
    <path id="Path_10" data-name="Path 10" d="M28.121,29.512a1.387,1.387,0,1,1-1.387-1.387,1.387,1.387,0,0,1,1.387,1.387Z" transform="translate(-7.297 -8.705)" fill="#dd001a"/>
    <path id="Path_11" data-name="Path 11" d="M27.4,8.439a.34.34,0,0,0-.3-.243L8.282,6.377a.579.579,0,0,1-.433-.272,5.884,5.884,0,0,0-.7-1.075C6.7,4.487,5.861,4.5,4.324,4.493a.842.842,0,0,0-.942.815.826.826,0,0,0,.9.815,7.677,7.677,0,0,1,1.5.11c.272.081.491.526.572.913a.021.021,0,0,0,.006.017c.012.069.116.589.116.6L8.79,19.984a4.493,4.493,0,0,0,.838,2.063,2.306,2.306,0,0,0,1.9.936H25.2a.821.821,0,0,0,.832-.774.805.805,0,0,0-.809-.844H11.517a.671.671,0,0,1-.48-.162,2.593,2.593,0,0,1-.664-1.5l-.248-1.369a.032.032,0,0,1,.023-.035l16.046-2.716a.338.338,0,0,0,.283-.3L27.4,8.59A.33.33,0,0,0,27.4,8.439Z" transform="translate(-3.382 -4.493)" fill="#dd001a"/>
  </g>
</svg>
