<svg xmlns="http://www.w3.org/2000/svg" width="29.131" height="18.266" viewBox="0 0 29.131 18.266">
  <path id="Icon_awesome-ticket-alt" data-name="Icon awesome-ticket-alt" d="M6.474,9.066H22.657V18.2H6.474ZM26.7,13.633a2.359,2.359,0,0,0,2.428,2.283v4.566A2.359,2.359,0,0,1,26.7,22.766H2.428A2.359,2.359,0,0,1,0,20.482V15.916a2.359,2.359,0,0,0,2.428-2.283A2.359,2.359,0,0,0,0,11.35V6.783A2.359,2.359,0,0,1,2.428,4.5H26.7a2.359,2.359,0,0,1,2.428,2.283V11.35A2.359,2.359,0,0,0,26.7,13.633ZM24.276,8.686a1.179,1.179,0,0,0-1.214-1.142H6.069A1.179,1.179,0,0,0,4.855,8.686V18.58a1.179,1.179,0,0,0,1.214,1.142H23.062a1.179,1.179,0,0,0,1.214-1.142Z" transform="translate(0 -4.5)" fill="#b5b5b5"/>
</svg>
