<svg xmlns="http://www.w3.org/2000/svg" width="23.718" height="23.778" viewBox="0 0 23.718 23.778">
  <g id="Group_176" data-name="Group 176" transform="translate(0)">
    <g id="Group_175" data-name="Group 175" transform="translate(0 0)">
      <path id="Path_40" data-name="Path 40" d="M855.362,1146.329a9.768,9.768,0,0,0,4.928,6.68,9.388,9.388,0,0,0,6.55,1.03,9.813,9.813,0,1,0-11.479-11.557c-.23-.148-.455-.279-.66-.436-.044-.034-.036-.171-.015-.251a10.636,10.636,0,0,1,8.8-7.916,10.636,10.636,0,1,1-8.81,13.128.254.254,0,0,1,.141-.337C855,1146.573,855.17,1146.451,855.362,1146.329Z" transform="translate(-853.558 -1132.888)" fill="#b5b5b5"/>
      <path id="Path_41" data-name="Path 41" d="M1105.452,1301.629l-7.41-3.069,7.407-3.068A9.032,9.032,0,0,1,1105.452,1301.629Z" transform="translate(-1085.546 -1287.043)" fill="#b5b5b5"/>
      <path id="Path_42" data-name="Path 42" d="M1012.984,1176.645l-3.066-7.4a8.982,8.982,0,0,1,6.135-.009Z" transform="translate(-1001.547 -1166.187)" fill="#b5b5b5"/>
      <path id="Path_43" data-name="Path 43" d="M1016.173,1391.03a8.7,8.7,0,0,1-6.118,0l3.059-7.387Z" transform="translate(-1001.677 -1371.071)" fill="#b5b5b5"/>
      <path id="Path_44" data-name="Path 44" d="M1098.818,1191.624l-7.395,3.063,3.058-7.384A8.848,8.848,0,0,1,1098.818,1191.624Z" transform="translate(-1079.236 -1183.918)" fill="#b5b5b5"/>
      <path id="Path_45" data-name="Path 45" d="M1091.4,1377.019l7.407,3.068a9.13,9.13,0,0,1-4.338,4.338Z" transform="translate(-1079.218 -1364.754)" fill="#b5b5b5"/>
      <path id="Path_46" data-name="Path 46" d="M909.424,1194.934l-7.367-3.052c.3-1.332,2.859-3.9,4.312-4.32Z" transform="translate(-898.735 -1184.166)" fill="#b5b5b5"/>
      <path id="Path_47" data-name="Path 47" d="M901.291,1380.095l7.4-3.067-3.064,7.4A9.114,9.114,0,0,1,901.291,1380.095Z" transform="translate(-898.005 -1364.762)" fill="#b5b5b5"/>
      <path id="Path_48" data-name="Path 48" d="M893.77,1298.358l-7.433,3.079c-.13-.532-.261-1.048-.376-1.567-.009-.042.078-.122.136-.16.5-.321,1-.635,1.5-.954.379-.243.376-.555-.007-.8-.5-.319-1-.638-1.5-.951a.2.2,0,0,1-.115-.261c.128-.478.241-.959.366-1.465Z" transform="translate(-883.392 -1286.841)" fill="#b5b5b5"/>
      <path id="Path_49" data-name="Path 49" d="M993.213,1595.215h-8.457l.679-1.361c.51.121,1,.256,1.5.351a11.09,11.09,0,0,0,5.4-.3c.188-.058.255-.015.33.148.171.374.363.74.545,1.109C993.218,1595.171,993.213,1595.189,993.213,1595.215Z" transform="translate(-977.563 -1571.437)" fill="#b5b5b5"/>
      <path id="Path_50" data-name="Path 50" d="M831.1,1315.943l3.316,2.11-3.316,2.111Z" transform="translate(-831.102 -1306.537)" fill="#b5b5b5"/>
      <path id="Path_51" data-name="Path 51" d="M1228.869,1136.932a.414.414,0,0,1-.266.43.384.384,0,0,1-.461-.125.934.934,0,0,1-.114-.2,12.362,12.362,0,0,0-3.867-4.663.7.7,0,0,1-.239-.273.368.368,0,0,1,.137-.457.393.393,0,0,1,.5.005c.4.312.805.616,1.18.954a12.9,12.9,0,0,1,3.042,4.1A2.3,2.3,0,0,1,1228.869,1136.932Z" transform="translate(-1205.504 -1130.781)" fill="#b5b5b5"/>
      <path id="Path_52" data-name="Path 52" d="M1261.421,1115.01a1.766,1.766,0,0,1,.346.193c.551.525,1.1,1.052,1.637,1.591a.4.4,0,0,1,.019.635c-.184.167-.422.124-.634-.085q-.778-.771-1.572-1.526c-.152-.144-.238-.312-.136-.494A1.515,1.515,0,0,1,1261.421,1115.01Z" transform="translate(-1240.911 -1115.01)" fill="#b5b5b5"/>
      <path id="Path_53" data-name="Path 53" d="M1318.7,1178.18a.43.43,0,0,1-.414.42.634.634,0,0,1-.521-.569.4.4,0,0,1,.409-.413A.649.649,0,0,1,1318.7,1178.18Z" transform="translate(-1294.987 -1174.686)" fill="#b5b5b5"/>
    </g>
  </g>
</svg>
