<svg xmlns="http://www.w3.org/2000/svg" width="82.014" height="75.752" viewBox="0 0 82.014 75.752">
  <g id="Group_265" data-name="Group 265" transform="translate(0 0)">
    <path id="Path_9" data-name="Path 9" d="M19.029,32.858A4.733,4.733,0,1,1,14.3,28.125,4.733,4.733,0,0,1,19.029,32.858Z" transform="translate(7.773 38.161)" fill="#e3e1e0"/>
    <path id="Path_10" data-name="Path 10" d="M34.814,32.858a4.733,4.733,0,1,1-4.733-4.733A4.733,4.733,0,0,1,34.814,32.858Z" transform="translate(36.264 38.161)" fill="#e3e1e0"/>
    <path id="Path_11" data-name="Path 11" d="M85.366,17.963a1.159,1.159,0,0,0-1.026-.828L20.106,10.923A1.977,1.977,0,0,1,18.627,10a20.083,20.083,0,0,0-2.406-3.668C14.7,4.473,11.843,4.533,6.6,4.493c-1.775-.02-3.215,1.026-3.215,2.781a2.819,2.819,0,0,0,3.077,2.781,26.2,26.2,0,0,1,5.128.375c.927.276,1.676,1.795,1.952,3.116a.072.072,0,0,0,.02.059c.039.237.394,2.012.394,2.031l7.889,41.732a15.337,15.337,0,0,0,2.86,7.041A7.871,7.871,0,0,0,31.19,67.6H77.852a2.8,2.8,0,0,0,2.84-2.643,2.748,2.748,0,0,0-2.761-2.879H31.151a2.292,2.292,0,0,1-1.637-.552c-.69-.592-1.637-1.952-2.268-5.128L26.4,51.727a.108.108,0,0,1,.079-.118L81.244,42.34a1.152,1.152,0,0,0,.966-1.026l3.156-22.838A1.125,1.125,0,0,0,85.366,17.963Z" transform="translate(-3.382 -4.493)" fill="#e3e1e0"/>
  </g>
</svg>
