<svg xmlns="http://www.w3.org/2000/svg" width="24.028" height="24.033" viewBox="0 0 24.028 24.033">
  <path id="Icon_awesome-globe" data-name="Icon awesome-globe" d="M16.3,7.927C15.6,3.6,13.945.563,12.016.563S8.431,3.6,7.728,7.927Zm-8.94,4.652a30.37,30.37,0,0,0,.16,3.1H16.5a30.37,30.37,0,0,0,.16-3.1,30.37,30.37,0,0,0-.16-3.1H7.525A30.37,30.37,0,0,0,7.365,12.579ZM23.1,7.927a12.042,12.042,0,0,0-7.656-6.861,16.353,16.353,0,0,1,2.423,6.861ZM8.586,1.066A12.034,12.034,0,0,0,.935,7.927H6.168A16.287,16.287,0,0,1,8.586,1.066Zm15.03,8.411H18.059c.1,1.018.16,2.059.16,3.1s-.058,2.083-.16,3.1h5.553a11.913,11.913,0,0,0,.417-3.1A12.121,12.121,0,0,0,23.616,9.478Zm-17.8,3.1c0-1.042.058-2.083.16-3.1H.417a11.747,11.747,0,0,0,0,6.2H5.969C5.873,14.662,5.814,13.621,5.814,12.579ZM7.728,17.23c.7,4.327,2.36,7.365,4.288,7.365S15.6,21.557,16.3,17.23Zm7.719,6.861A12.053,12.053,0,0,0,23.1,17.23H17.87a16.353,16.353,0,0,1-2.423,6.861ZM.935,17.23a12.042,12.042,0,0,0,7.656,6.861A16.353,16.353,0,0,1,6.168,17.23H.935Z" transform="translate(0 -0.563)" fill="#dd001a"/>
</svg>
