<svg xmlns="http://www.w3.org/2000/svg" width="54" height="53" viewBox="0 0 54 53">
  <g id="Group_344" data-name="Group 344" transform="translate(0 0.333)">
    <ellipse id="Ellipse_53" data-name="Ellipse 53" cx="27" cy="26.5" rx="27" ry="26.5" transform="translate(0 -0.333)" fill="#f33c4c"/>
    <path id="Icon_awesome-instagram" data-name="Icon awesome-instagram" d="M14.791,9.444a7.584,7.584,0,1,0,7.584,7.584A7.572,7.572,0,0,0,14.791,9.444Zm0,12.514a4.93,4.93,0,1,1,4.93-4.93,4.939,4.939,0,0,1-4.93,4.93ZM24.454,9.133a1.769,1.769,0,1,1-1.769-1.769A1.765,1.765,0,0,1,24.454,9.133Zm5.023,1.8a8.754,8.754,0,0,0-2.389-6.2,8.811,8.811,0,0,0-6.2-2.389c-2.442-.139-9.762-.139-12.2,0a8.8,8.8,0,0,0-6.2,2.383A8.782,8.782,0,0,0,.1,10.922c-.139,2.442-.139,9.762,0,12.2a8.754,8.754,0,0,0,2.389,6.2,8.822,8.822,0,0,0,6.2,2.389c2.442.139,9.762.139,12.2,0a8.754,8.754,0,0,0,6.2-2.389,8.811,8.811,0,0,0,2.389-6.2c.139-2.442.139-9.755,0-12.2ZM26.322,25.746a4.992,4.992,0,0,1-2.812,2.812c-1.947.772-6.567.594-8.719.594s-6.778.172-8.719-.594A4.992,4.992,0,0,1,3.26,25.746c-.772-1.947-.594-6.567-.594-8.719s-.172-6.778.594-8.719A4.992,4.992,0,0,1,6.072,5.5c1.947-.772,6.567-.594,8.719-.594s6.778-.172,8.719.594a4.992,4.992,0,0,1,2.812,2.812c.772,1.947.594,6.567.594,8.719S27.094,23.806,26.322,25.746Z" transform="translate(11.675 9.582)" fill="#fff"/>
  </g>
</svg>
