<svg id="Icon_ionic-ios-notifications" data-name="Icon ionic-ios-notifications" xmlns="http://www.w3.org/2000/svg" width="15.645" height="19.568" viewBox="0 0 15.645 19.568">
  <path id="Path_54" data-name="Path 54" d="M16.961,30.928a2.306,2.306,0,0,0,2.352-2.592H14.6A2.307,2.307,0,0,0,16.961,30.928Z" transform="translate(-9.148 -11.36)" fill="#b5b5b5"/>
  <path id="Path_55" data-name="Path 55" d="M22.208,18.422c-.753-.993-2.235-1.575-2.235-6.021,0-4.563-2.015-6.4-3.893-6.837-.176-.044-.3-.1-.3-.289V5.134a1.193,1.193,0,1,0-2.387,0v.142c0,.181-.127.245-.3.289C11.2,6.009,9.194,7.838,9.194,12.4c0,4.446-1.482,5.023-2.235,6.021a.971.971,0,0,0,.778,1.555h13.7A.971.971,0,0,0,22.208,18.422Z" transform="translate(-6.761 -3.93)" fill="#b5b5b5"/>
</svg>
