<svg xmlns="http://www.w3.org/2000/svg" width="54" height="53" viewBox="0 0 54 53">
  <g id="Group_347" data-name="Group 347" transform="translate(-0.233 0.333)">
    <ellipse id="Ellipse_56" data-name="Ellipse 56" cx="27" cy="26.5" rx="27" ry="26.5" transform="translate(0.233 -0.333)" fill="#f33c4c"/>
    <path id="Icon_ionic-ios-phone-portrait" data-name="Icon ionic-ios-phone-portrait" d="M26.847,2.25H13.012a2.87,2.87,0,0,0-2.887,2.87V38.354a2.955,2.955,0,0,0,2.887,2.974H26.838a2.9,2.9,0,0,0,2.817-2.974V5.12A2.8,2.8,0,0,0,26.847,2.25Zm-8.26,2.006H21.2a.349.349,0,1,1,0,.7H18.586a.349.349,0,1,1,0-.7ZM19.938,40.02A1.518,1.518,0,1,1,21.456,38.5,1.519,1.519,0,0,1,19.938,40.02Zm8.156-4.274H11.7a.175.175,0,0,1-.174-.174V6.873A.175.175,0,0,1,11.7,6.7h16.4a.175.175,0,0,1,.174.174v28.7A.175.175,0,0,1,28.094,35.746Z" transform="translate(6.902 4.707)" fill="#fff"/>
  </g>
</svg>
