<svg xmlns="http://www.w3.org/2000/svg" width="21.187" height="21.192" viewBox="0 0 21.187 21.192">
  <path id="Icon_ionic-ios-settings" data-name="Icon ionic-ios-settings" d="M23.938,15.093a2.726,2.726,0,0,1,1.749-2.543A10.806,10.806,0,0,0,24.379,9.4a2.763,2.763,0,0,1-1.109.237,2.72,2.72,0,0,1-2.488-3.829A10.774,10.774,0,0,0,17.637,4.5a2.724,2.724,0,0,1-5.087,0A10.807,10.807,0,0,0,9.4,5.808,2.72,2.72,0,0,1,6.911,9.637,2.673,2.673,0,0,1,5.8,9.4a11.045,11.045,0,0,0-1.3,3.156,2.725,2.725,0,0,1,.006,5.087,10.806,10.806,0,0,0,1.308,3.15A2.721,2.721,0,0,1,9.4,24.384a10.87,10.87,0,0,0,3.15,1.308,2.719,2.719,0,0,1,5.076,0,10.807,10.807,0,0,0,3.15-1.308,2.724,2.724,0,0,1,3.592-3.592,10.869,10.869,0,0,0,1.308-3.15A2.739,2.739,0,0,1,23.938,15.093ZM15.143,19.5a4.414,4.414,0,1,1,4.414-4.414A4.413,4.413,0,0,1,15.143,19.5Z" transform="translate(-4.5 -4.5)" fill="#dd001a"/>
</svg>
